# AST/ASF file generated using VICON BodyLanguage
# -----------------------------------------------
:version 1.10
:name VICON
:units
  mass 1.0
  length 0.45
  angle deg
:documentation
   .ast/.asf automatically generated from VICON data using
   VICON BodyBuilder and BodyLanguage model FoxedUp or BRILLIANT.MOD
:root
   order TX TY TZ RX RY RZ
   axis XYZ
   position 0 0 0  
   orientation 0 -0 0 
:bonedata
  begin
     id 1 
     name lhipjoint
     direction 0.432694 -0.693742 0.575759 
     length 2.19277 
     axis 0 -0 0  XYZ
  end
  begin
     id 2 
     name lfemur
     direction 0.34202 -0.939693 0  
     length 6.69022  
     axis 0 -0 20  XYZ
    dof rx ry rz
    limits (-160.0 20.0)
           (-70.0 70.0)
           (-60.0 70.0)
  end
  begin
     id 3 
     name ltibia
     direction 0.34202 -0.939693 0   
     length 6.50337   
     axis 0 -0 20   XYZ
    dof rx
    limits (-10.0 170.0)
  end
  begin
     id 4 
     name lfoot
     direction 0.158999 -0.435969 0.885805   
     length 2.70564   
     axis -90 -1.13533e-015 20   XYZ
    dof rx rz
    limits (-45.0 90.0)
           (-70.0 20.0)
  end
  begin
     id 5 
     name ltoes
     direction -0.00592919 0.00964381 0.999936   
     length 1.29929   
     axis -90 -1.13533e-015 20   XYZ
    dof rx
    limits (-90.0 20.0)
  end
  begin
     id 6 
     name rhipjoint
     direction -0.414359 -0.700339 0.581234   
     length 2.17212  
     axis 0 -0 0  XYZ 
  end
  begin
     id 7 
     name rfemur
     direction -0.34202 -0.939693 0   
     length 7.17659   
     axis 0 -0 -20   XYZ
    dof rx ry rz
    limits (-160.0 20.0)
           (-70.0 70.0)
           (-70.0 60.0)
  end
  begin
     id 8 
     name rtibia
     direction -0.34202 -0.939693 0   
     length 6.36669   
     axis 0 -0 -20   XYZ
    dof rx
    limits (-10.0 170.0)
 end
 begin
     id 9 
     name rfoot
     direction -0.137064 -0.37658 0.916188   
     length 2.22351  
     axis -90 1.13533e-015 -20   XYZ
    dof rx rz
    limits (-45.0 90.0)
           (-20.0 70.0)
  end
  begin
     id 10 
     name rtoes
     direction -0.000784077 -0.00289101 0.999996   
     length 1.09522   
     axis -90 1.13533e-015 -20   XYZ
    dof rx
    limits (-90.0 20.0)
  end
  begin
     id 11 
     name lowerback
     direction -0.0176242 0.984912 -0.172157   
     length 1.65301   
     axis 0 -0 0   XYZ
    dof rx ry rz
    limits (-20.0 45.0)
           (-30.0 30.0)
           (-30.0 30.0)
  end
  begin
     id 12 
     name upperback
     direction -0.00218128 0.998776 -0.0494072   
     length 1.67776   
     axis 0 -0 0   XYZ
    dof rx ry rz
    limits (-20.0 45.0)
           (-30.0 30.0)
           (-30.0 30.0)
  end
  begin
     id 13 
     name thorax
     direction 0.00544186 0.999658 0.0255711   
     length 1.72293   
     axis 0 -0 0   XYZ
    dof rx ry rz
    limits (-20.0 45.0)
           (-30.0 30.0)
           (-30.0 30.0)
  end
  begin
     id 14 
     name lowerneck
     direction -0.105325 0.983841 0.144785   
     length 2.14226   
     axis 0 -0 0   XYZ
    dof rx ry rz
    limits (-20.0 45.0)
           (-30.0 30.0)
           (-30.0 30.0)
  end
  begin
     id 15 
     name upperneck
     direction 0.0547957 0.988053 -0.144041   
     length 2.17508   
     axis 0 -0 0   XYZ
    dof rx ry rz
    limits (-20.0 45.0)
           (-30.0 30.0)
           (-30.0 30.0)
  end
  begin
     id 16
     name head
     direction 0.0247488 0.997534 -0.0656813  
     length 2.20048  
     axis 0 -0 0   XYZ
    dof rx ry rz
    limits (-20.0 45.0)
           (-30.0 30.0)
           (-30.0 30.0)
  end
  begin
     id 17 
     name lclavicle
     direction 0.820559 0.567247 -0.0701026  
     length 4.09615  
     axis 0 -0 0   XYZ
    dof ry rz
    limits (-20.0 10.0)
           (0.0 20.0)
  end
  begin
     id 18 
     name lhumerus
     direction 0.999977 -0.0067566 -9.96392e-005   
     length 4.59333   
     axis -180 -30 -90   XYZ
    dof rx ry rz
    limits (-60.0 90.0)
           (-90.0 90.0)
           (-90.0 90.0)
  end
  begin
     id 19
     name lradius
     direction 1 -4.48982e-011 -2.53425e-027   
     length 2.81151   
     axis -180 -30 -90   XYZ
    dof rx
    limits (-10.0 170.0)
  end
  begin
     id 20
     name lwrist
     direction 1 -4.48939e-011 -7.39254e-028   
     length 1.40576   
     axis 2.56395e-016 90 90   XYZ
    dof ry
    limits (-180.0 0.0)
 end
  begin
     id 21 
     name lhand
     direction 1 -4.48939e-011 -1.47851e-027   
     length 0.895651   
     axis 9.43423e-016 90 90   XYZ
    dof rx rz
    limits (-90.0 90.0)
           (-45.0 45.0)
  end
  begin
     id 22 
     name lfingers
     direction 1 -4.48978e-011 -2.95702e-027   
     length 0.722097   
     axis 1.88685e-015 90 90   XYZ
    dof rx
    limits (0.0 90.0)
  end
  begin
     id 23
     name lthumb
     direction 0.707107 -6.34931e-011 0.707107   
     length 1.03679   
     axis -90 45 -9.86935e-015   XYZ
    dof rx rz
    limits (-45.0 45.0)
           (-45.0 45.0)
  end
  begin
     id 24 
     name rclavicle
     direction -0.831414 0.553102 -0.0531864   
     length 4.24872  
     axis 0 -0 0   XYZ 
    dof ry rz
    limits (-10.0 20.0)
           (-20.0 0.0)
  end
  begin
     id 25 
     name rhumerus
     direction -0.999916 -0.000939607 0.0129331  
     length 4.74834   
     axis -180 30 90   XYZ
    dof rx ry rz
    limits (-90.0 60.0)
           (-90.0 90.0)
           (-90.0 90.0)
  end
  begin
     id 26 
     name rradius
     direction -1 -4.48956e-011 -1.31752e-027   
     length 2.79907   
     axis -180 30 90   XYZ
    dof rx
    limits (-10.0 170.0)
  end
  begin
     id 27 
     name rwrist
     direction -1 -4.4897e-011 -7.39254e-028   
     length 1.39954   
     axis 2.56395e-016 -90 -90   XYZ
    dof ry
    limits (-180.0 0.0)
  end
  begin
     id 28
     name rhand
     direction -0.999997 -0.00250697 0.000800838   
     length 0.953304   
     axis 9.43423e-016 -90 -90   XYZ
    dof rx rz
    limits (-90.0 90.0)
           (-45.0 45.0)
  end
  begin
     id 29
     name rfingers
     direction -1 -4.48954e-011 -2.95702e-027   
     length 0.763342   
     axis 1.88685e-015 -90 -90   XYZ
    dof rx
    limits (0.0 90.0)
  end
  begin
     id 30
     name rthumb
     direction -0.709701 -0.00217037 0.7045   
     length 1.10115   
     axis -90 -45 9.86935e-015   XYZ
    dof rx rz
    limits (-45.0 45.0)
           (-45.0 45.0)
  end
:hierarchy
  begin
    root lhipjoint rhipjoint lowerback
    lhipjoint lfemur
    lfemur ltibia
    ltibia lfoot
    lfoot ltoes
    rhipjoint rfemur
    rfemur rtibia
    rtibia rfoot
    rfoot rtoes
    lowerback upperback
    upperback thorax
    thorax lowerneck lclavicle rclavicle
    lowerneck upperneck
    upperneck head
    lclavicle lhumerus
    lhumerus lradius
    lradius lwrist
    lwrist lhand lthumb
    lhand lfingers
    rclavicle rhumerus
    rhumerus rradius
    rradius rwrist
    rwrist rhand rthumb
    rhand rfingers
  end

#!OML:ASF G:\ViconDB\ViconDB\414\test\team2\shane.ASF
:FULLY-SPECIFIED
:DEGREES
113
root 5.44402 15.4241 -11.9139 277.075 16.9173 129.409
lowerback 21.3628 1.47037 9.06423
upperback 6.56035 3.53137 9.16233
thorax -4.73843 1.45269 3.95338
lowerneck -27.836 -6.59436 -2.92157
upperneck 1.62648 -8.33181 5.51348
head 5.05762 -3.68389 1.26046
rclavicle 2.01965e-013 1.08139e-013
rhumerus 67.4312 -28.1457 -58.1504
rradius 29.2952
rwrist 6.84696
rhand -50.36 -77.3717
rfingers 7.12502
rthumb -22.9346 106.028
lclavicle 2.01965e-013 1.08139e-013
lhumerus 7.17606 -3.90249 -20.1913
lradius 32.2286
lwrist 36.7764
lhand -55.6253 43.407
lfingers 7.12502
lthumb -27.9781 71.3419
rfemur -77.8548 -30.329 -7.82687
rtibia 61.64
rfoot -35.8623 -17.7787
rtoes -9.21658
lfemur 10.8234 -0.345999 -4.47079
ltibia 54.3203
lfoot 17.4418 -7.31497
ltoes -4.38222
114
root 5.52096 15.3358 -11.6897 276.283 14.8298 130.057
lowerback 21.7371 1.65568 8.78308
upperback 6.99705 3.66753 8.79248
thorax -4.44757 1.52307 3.66314
lowerneck -27.2128 -6.55537 -2.83303
upperneck 0.805517 -8.30293 5.41666
head 4.71702 -3.7206 1.23236
rclavicle -3.02153e-014 -2.54444e-014
rhumerus 65.874 -28.2196 -57.9736
rradius 28.969
rwrist 4.88013
rhand -49.8144 -77.6635
rfingers 7.12502
rthumb -22.411 106.383
lclavicle -3.02153e-014 -2.54444e-014
lhumerus 5.42211 -6.93714 -18.5971
lradius 31.963
lwrist 37.35
lhand -55.1289 40.8876
lfingers 7.12502
lthumb -27.5034 68.899
rfemur -80.8138 -30.8532 -5.96717
rtibia 62.8882
rfoot -35.8858 -18.2978
rtoes -8.10177
lfemur 8.90642 -0.70016 -5.11795
ltibia 55.2291
lfoot 16.2225 -6.73026
ltoes -3.97417
115
root 5.6034 15.2263 -11.4482 274.91 12.2504 131.076
lowerback 22.7979 1.9604 8.69706
upperback 7.5335 4.04949 8.56234
thorax -4.3878 1.69511 3.34839
lowerneck -26.9515 -6.49426 -2.52758
upperneck 0.497442 -8.3071 5.16928
head 4.55821 -3.76041 1.11684
rclavicle -7.95139e-014 1.59028e-014
rhumerus 63.9372 -28.2368 -57.445
rradius 28.6574
rwrist 2.9424
rhand -49.3849 -78.0459
rfingers 7.12502
rthumb -21.9987 106.815
lclavicle -7.95139e-014 1.59028e-014
lhumerus 3.46723 -8.08851 -16.2536
lradius 32.0616
lwrist 36.3347
lhand -54.4804 38.163
lfingers 7.12502
lthumb -26.8831 66.2714
rfemur -82.9715 -30.5069 -4.07237
rtibia 64.05
rfoot -35.4003 -18.8356
rtoes -8.29496
lfemur 7.86913 -0.5038 -4.81248
ltibia 55.8284
lfoot 14.4857 -6.53723
ltoes -3.57293
116
root 5.67234 15.1045 -11.2186 273.631 9.74034 132.107
lowerback 23.3535 2.27027 8.59801
upperback 7.9663 4.38605 8.25893
thorax -4.17348 1.85323 2.97624
lowerneck -26.5396 -6.42199 -2.40394
upperneck 0.154598 -8.25537 5.08612
head 4.38257 -3.7654 1.09143
rclavicle -4.77083e-014 8.5875e-014
rhumerus 61.6193 -28.0507 -56.7344
rradius 28.3924
rwrist 0.910951
rhand -48.8413 -78.428
rfingers 7.12502
rthumb -21.4766 107.257
lclavicle -4.77083e-014 8.5875e-014
lhumerus 1.83001 -9.86404 -14.134
lradius 31.5447
lwrist 35.1794
lhand -53.8225 36.8306
lfingers 7.12502
lthumb -26.2534 65.0344
rfemur -84.5285 -30.0072 -2.71303
rtibia 64.7351
rfoot -34.3772 -19.4119
rtoes -7.82701
lfemur 6.7051 -0.372485 -4.71131
ltibia 56.369
lfoot 12.3665 -5.83107
ltoes -2.85082
117
root 5.82408 14.9442 -10.9796 272.864 8.24367 136.687
lowerback 24.9981 4.46605 5.14099
upperback 8.47353 6.54337 7.83814
thorax -4.80576 2.87025 3.79852
lowerneck -26.6098 -6.10498 -1.64784
upperneck 0.0620691 -8.02321 4.09054
head 4.25586 -3.73883 0.698955
rclavicle -1.59028e-014 8.26944e-014
rhumerus 59.6831 -27.9584 -56.9882
rradius 27.9882
rwrist -0.69346
rhand -48.4875 -78.6137
rfingers 7.12502
rthumb -21.1367 107.482
lclavicle -1.59028e-014 8.26944e-014
lhumerus -0.249194 -10.8367 -11.956
lradius 31.5182
lwrist 33.8069
lhand -53.5989 35.6077
lfingers 7.12502
lthumb -26.0393 63.8431
rfemur -86.3906 -24.9894 -3.84818
rtibia 65.091
rfoot -33.9767 -20.2214
rtoes -7.07826
lfemur 6.80682 3.11972 -5.42162
ltibia 56.5027
lfoot 9.82868 -5.03507
ltoes -1.89311
118
root 5.77582 14.8333 -10.794 271.065 4.65633 133.878
lowerback 23.9266 2.64661 8.99345
upperback 8.63312 4.83846 7.51667
thorax -3.60997 2.08015 1.82654
lowerneck -26.9886 -5.8407 -1.27929
upperneck 0.410605 -7.7808 3.53682
head 4.37298 -3.65803 0.479756
rclavicle -1.87653e-013 -8.90555e-014
rhumerus 58.2045 -27.9823 -57.7693
rradius 27.2635
rwrist -1.40408
rhand -47.8535 -78.1472
rfingers 7.12502
rthumb -20.5276 107.082
lclavicle -1.87653e-013 -8.90555e-014
lhumerus -2.0219 -11.5104 -9.57927
lradius 31.0537
lwrist 32.9658
lhand -53.4462 33.085
lfingers 7.12502
lthumb -25.8931 61.3419
rfemur -85.1634 -28.793 -2.20873
rtibia 65.1659
rfoot -32.8254 -18.8808
rtoes -7.19871
lfemur 4.14623 -0.0490108 -4.26521
ltibia 57.031
lfoot 7.76794 -3.62523
ltoes -1.96362
119
root 5.91051 14.6532 -10.5665 269.746 3.43338 138.152
lowerback 25.3357 4.76075 5.50369
upperback 8.93802 6.88574 7.18572
thorax -4.33797 3.02707 2.78539
lowerneck -26.8938 -5.66914 -1.41084
upperneck 0.51706 -7.52763 3.35224
head 4.38577 -3.55862 0.468728
rclavicle -1.59028e-014 -4.45278e-014
rhumerus 56.3564 -27.8648 -58.5541
rradius 26.6875
rwrist -1.77307
rhand -46.9607 -77.7684
rfingers 7.12502
rthumb -19.6695 106.793
lclavicle -1.59028e-014 -4.45278e-014
lhumerus -4.23496 -13.6844 -7.39481
lradius 30.7153
lwrist 31.7616
lhand -53.3315 33.1174
lfingers 7.12502
lthumb -25.7832 61.3903
rfemur -85.6206 -23.8647 -4.36286
rtibia 65.7318
rfoot -36.1548 -16.5193
rtoes -17.6908
lfemur 4.3301 2.93173 -5.08978
ltibia 57.1952
lfoot 5.44005 -2.03624
ltoes -2.71648
